<?xml version="1.0" encoding="UTF-8"?>
<svg id="Capa_2" data-name="Capa 2" xmlns="http://www.w3.org/2000/svg" viewBox="0 0 116.21 111.81">
  <defs>
    <style>
      .cls-1 {
        fill: #e30613;
      }

      .cls-2 {
        fill: none;
        stroke: #e30613;
        stroke-miterlimit: 10;
        stroke-width: 2px;
      }
    </style>
  </defs>
  <g id="Capa_2-2" data-name="Capa 2">
    <polygon class="cls-1" points="56.29 34.17 32.68 43.52 2.8 13.81 56.29 34.17"/>
    <polygon class="cls-1" points="57.62 34.76 82.1 44.07 57.83 68.48 33.46 44.25 57.62 34.76"/>
    <polygon class="cls-1" points="84.71 44.06 115.78 12.69 116.21 56.08 84.71 44.06"/>
    <path class="cls-1" d="M57.17,109.9l-.15-39.51-25.5-25.3L.34,57.36s-.73,47.79,56.84,52.54Z"/>
    <polygon class="cls-1" points="57.49 0 81.96 9.32 57.7 33.73 33.32 9.5 57.49 0"/>
    <polygon class="cls-1" points="113.1 12.9 82.91 43.37 58.81 34.23 113.1 12.9"/>
    <polygon class="cls-1" points="30.73 44.3 .23 56.35 0 13.81 30.73 44.3"/>
    <path class="cls-1" d="M58.73,109.77l-.15-39.57,25.58-25.45,31.93,12.13s1.27,48.15-57.36,52.89Z"/>
    <line class="cls-2" x1=".43" y1="110.81" x2="113.72" y2="110.22"/>
  </g>
</svg>