<?xml version="1.0" encoding="UTF-8"?>
<svg id="Capa_2" data-name="Capa 2" xmlns="http://www.w3.org/2000/svg" viewBox="0 0 133.9 170.37">
  <defs>
    <style>
      .cls-1 {
        stroke-width: 1.5px;
      }

      .cls-1, .cls-2, .cls-3, .cls-4, .cls-5, .cls-6, .cls-7, .cls-8, .cls-9, .cls-10 {
        stroke-miterlimit: 10;
      }

      .cls-1, .cls-2, .cls-3, .cls-4, .cls-5, .cls-7, .cls-9, .cls-10 {
        fill: none;
      }

      .cls-1, .cls-2, .cls-4, .cls-5 {
        stroke: #000;
      }

      .cls-11 {
        fill: #e40134;
      }

      .cls-12, .cls-13 {
        fill: #cdcccc;
      }

      .cls-12, .cls-14 {
        font-family: CascadiaCodeRoman-SemiLight, 'Cascadia Code';
        font-size: 38.4px;
        font-variation-settings: 'wght' 350;
      }

      .cls-3, .cls-6, .cls-8, .cls-9 {
        stroke: #1d1d1b;
      }

      .cls-15 {
        fill: #c8006e;
      }

      .cls-16 {
        fill: #aa1435;
      }

      .cls-4, .cls-10 {
        stroke-width: 3px;
      }

      .cls-17 {
        fill: #9d111c;
      }

      .cls-5, .cls-8, .cls-9 {
        stroke-width: 2px;
      }

      .cls-6 {
        fill: #e30613;
      }

      .cls-7 {
        stroke-width: 5px;
      }

      .cls-7, .cls-10 {
        stroke: #cdcccc;
      }

      .cls-8 {
        fill: #fff;
      }

      .cls-18 {
        fill: #c11011;
      }

      .cls-19 {
        fill: #a41e1b;
      }

      .cls-20 {
        fill: #8f0f28;
      }

      .cls-14 {
        fill: #e52823;
      }

      .cls-21 {
        fill: #bd1111;
      }

      .cls-22 {
        fill: #740e00;
      }

      .cls-23 {
        fill: #be1d2f;
      }

      .cls-24 {
        fill: #cd171d;
      }

      .cls-25 {
        fill: #1d1d1b;
      }
    </style>
  </defs>
  <g id="Capa_3" data-name="Capa 3">
    <line class="cls-7" x1="8.81" y1="115.43" x2="128.94" y2="115.46"/>
    <polygon class="cls-7" points="68.68 2.68 93.1 12.15 68.68 36.41 44.46 12.03 68.68 2.68"/>
    <ellipse class="cls-13" cx="127.82" cy="15.33" rx="2.65" ry="2.3" transform="translate(1.9 42.12) rotate(-18.85)"/>
    <ellipse class="cls-13" cx="10.02" cy="15.51" rx="2.29" ry="2.74" transform="translate(-7.51 21.34) rotate(-75.54)"/>
    <line class="cls-10" x1="67.96" y1="36.61" x2="10.1" y2="14.7"/>
    <line class="cls-10" x1="69.14" y1="36.41" x2="127.57" y2="14.58"/>
    <line class="cls-10" x1="128.94" y1="60.07" x2="128.94" y2="15.2"/>
    <line class="cls-10" x1="8.81" y1="59.68" x2="8.81" y2="15.32"/>
    <g>
      <path class="cls-10" d="M8.81,59.68c-.09,30.72,26.65,55.67,59.79,55.77"/>
      <path class="cls-10" d="M128.94,60.07c-.09,30.71-27.02,55.48-60.19,55.38"/>
    </g>
    <polygon class="cls-16" points="67.25 37.85 43.59 47.05 13.9 17.16 67.25 37.85"/>
    <polygon class="cls-15" points="68.58 38.44 93 47.9 68.59 72.16 44.36 47.78 68.58 38.44"/>
    <polygon class="cls-11" points="95.61 47.91 126.88 16.73 127.04 60.12 95.61 47.91"/>
    <path class="cls-22" d="M67.66,114.17l.1-40.08-25.54-25.83-31.51,12.25s-1.03,48.48,56.95,53.65Z"/>
    <line class="cls-6" x1="68.61" y1="37.91" x2="42.98" y2="47.82"/>
    <polygon class="cls-8" points="68.67 2.68 93.09 12.15 68.68 36.41 44.45 12.03 68.67 2.68"/>
    <polygon class="cls-24" points="124.2 16.92 93.82 47.21 69.78 37.92 124.2 16.92"/>
    <polygon class="cls-23" points="41.63 47.81 11.06 59.68 11.09 17.14 41.63 47.81"/>
    <path class="cls-21" d="M68.88,113.83l.1-39.8,26.09-25.44,32.29,12.41s.99,48.44-58.48,52.83Z"/>
    <g>
      <line class="cls-9" x1="68.52" y1="114.45" x2="68.59" y2="72.26"/>
      <line class="cls-9" x1="9.85" y1="115.44" x2="127.6" y2="115.46"/>
      <path class="cls-9" d="M10.09,60.54c-.09,29.54,26.13,53.53,58.64,53.63"/>
      <line class="cls-9" x1="10.1" y1="15.2" x2="10.09" y2="61.21"/>
      <line class="cls-9" x1="67.88" y1="74.32" x2="126.42" y2="16.15"/>
      <line class="cls-9" x1="11.62" y1="16.26" x2="68.86" y2="73.86"/>
      <line class="cls-3" x1="10.1" y1="15.2" x2="127.91" y2="60.93"/>
      <line class="cls-3" x1="127.92" y1="14.98" x2="10.04" y2="60.55"/>
      <path class="cls-9" d="M127.91,60.93c-.09,29.53-26.5,53.35-59.03,53.25"/>
      <line class="cls-9" x1="127.92" y1="14.98" x2="127.91" y2="61"/>
      <ellipse class="cls-25" cx="9.98" cy="15.32" rx=".64" ry=".9" transform="translate(-7.13 21.75) rotate(-77.5)"/>
      <ellipse class="cls-25" cx="11.45" cy="16.49" rx=".55" ry=".81" transform="translate(-5.07 27.89) rotate(-89.82)"/>
      <ellipse class="cls-25" cx="128.03" cy="15.09" rx=".9" ry=".64" transform="translate(-.31 27.25) rotate(-12.14)"/>
      <ellipse class="cls-25" cx="126.7" cy="16.12" rx=".64" ry=".9" transform="translate(83.54 136.33) rotate(-77.5)"/>
    </g>
    <polygon class="cls-20" points="68.49 17.82 45.6 12.67 68.38 35.59 68.49 17.82"/>
    <polygon class="cls-17" points="69.17 35.43 91.79 12.96 69.28 17.93 69.17 35.43"/>
    <polygon class="cls-19" points="45.94 11.88 68.49 17.13 68.25 3.08 45.94 11.88"/>
    <polygon class="cls-18" points="91.8 11.97 69.08 3.09 69.14 17.13 91.8 11.97"/>
    <line class="cls-3" x1="68.67" y1="2.68" x2="68.88" y2="17.66"/>
    <line class="cls-3" x1="68.68" y1="36.41" x2="68.88" y2="17.66"/>
    <line class="cls-9" x1="44.45" y1="12.03" x2="68.88" y2="17.66"/>
    <line class="cls-9" x1="93.09" y1="12.15" x2="68.88" y2="17.66"/>
    <line class="cls-9" x1="68.78" y1="37.66" x2="128.18" y2="15.53"/>
    <line class="cls-9" x1="67.96" y1="37.66" x2="10.1" y2="15.75"/>
    <text class="cls-14" transform="translate(.58 151.83) scale(.99 1)"><tspan x="0" y="0">KUENTY</tspan></text>
    <text class="cls-12" transform="translate(0 151.56) scale(.99 1)"><tspan x="0" y="0">KUENTY</tspan></text>
    <g>
      <rect class="cls-25" x="3.42" y="124.95" width="1.76" height="26.62"/>
      <path class="cls-25" d="M3.89,142.35l.34-1.69c2.14,0,4.04-.35,5.71-1.05s3.08-1.72,4.22-3.07,2.01-2.99,2.61-4.93c.59-1.94,.89-4.17,.89-6.67h1.8c0,2.76-.34,5.22-1.03,7.38-.69,2.16-1.7,3.98-3.03,5.47s-2.96,2.62-4.88,3.39c-1.92,.77-4.13,1.16-6.62,1.16Z"/>
      <polygon class="cls-25" points="18.44 151.56 12.33 139.37 13.87 138.24 20.54 151.56 18.44 151.56"/>
    </g>
    <path class="cls-25" d="M33.52,151.49c-.92,.04-3.16-.04-5.15-1.65-3.06-2.48-2.76-6.54-2.73-6.92v-17.97h1.79l-.03,17.56s0,0,0,0c0,.8-.05,3.88,1.75,5.64,1.7,1.67,3.99,1.62,4.44,1.6,.25-.01,2.89-.16,4.51-2.22,1.23-1.57,1.23-3.44,1.23-4.3,0-4.15,.02-10.44-.09-18.31h1.6c.05,2.01,.28,10.92,.02,18.79-.03,1.03-.12,2.96-1.4,4.71-2.08,2.85-5.72,3.05-5.94,3.06Z"/>
    <line class="cls-5" x1="49.15" y1="125.7" x2="49.1" y2="150.73"/>
    <line class="cls-5" x1="63.91" y1="150.1" x2="48.14" y2="150.11"/>
    <line class="cls-5" x1="63.95" y1="126.36" x2="48.18" y2="126.37"/>
    <line class="cls-5" x1="60.66" y1="138.2" x2="49.48" y2="138.21"/>
    <line class="cls-5" x1="71.18" y1="125.44" x2="71.14" y2="151.56"/>
    <line class="cls-5" x1="84.42" y1="124.95" x2="84.37" y2="151.23"/>
    <line class="cls-1" x1="72.79" y1="125.76" x2="82.91" y2="150.95"/>
    <line class="cls-2" x1="70.25" y1="125.94" x2="73.51" y2="125.94"/>
    <line class="cls-2" x1="82.22" y1="150.72" x2="85.28" y2="150.72"/>
    <line class="cls-5" x1="81.99" y1="149.12" x2="84.64" y2="149.12"/>
    <line class="cls-4" x1="70.53" y1="127.22" x2="73.22" y2="127.22"/>
    <line class="cls-5" x1="99.92" y1="125.96" x2="99.87" y2="151.54"/>
    <line class="cls-5" x1="90.94" y1="126.36" x2="108.89" y2="126.39"/>
    <line class="cls-5" x1="122.26" y1="140.39" x2="122.24" y2="151.56"/>
    <line class="cls-9" x1="113.6" y1="125.44" x2="122.25" y2="142.15"/>
    <line class="cls-5" x1="130.76" y1="125.43" x2="122.25" y2="142.15"/>
    <line class="cls-5" x1="120.61" y1="140.32" x2="123.9" y2="140.32"/>
    <rect class="cls-25" x="112.85" y="125.03" width=".65" height="1.9" transform="translate(-45.23 66.09) rotate(-27.35)"/>
    <polygon class="cls-25" points="113.4 127.21 112.24 124.98 114.49 124.98 113.4 127.21"/>
    <polygon class="cls-25" points="114.69 125.45 114.45 124.98 114.03 125.22 114.69 125.45"/>
    <polygon class="cls-25" points="131.43 126.31 132.11 124.99 129.87 124.98 131.43 126.31"/>
  </g>
</svg>