<?xml version="1.0" encoding="UTF-8"?>
<svg id="Capa_2" data-name="Capa 2" xmlns="http://www.w3.org/2000/svg" viewBox="0 0 125.55 164.33">
  <defs>
    <style>
      .cls-1, .cls-2 {
        stroke-width: 2px;
      }

      .cls-1, .cls-2, .cls-3 {
        stroke: #cdcccc;
      }

      .cls-1, .cls-2, .cls-3, .cls-4 {
        stroke-miterlimit: 10;
      }

      .cls-1, .cls-3 {
        fill: none;
      }

      .cls-2 {
        fill: #fff;
      }

      .cls-5, .cls-6 {
        fill: #cdcccc;
      }

      .cls-5, .cls-7 {
        font-family: CascadiaCodeRoman-SemiLight, 'Cascadia Code';
        font-size: 36px;
        font-variation-settings: 'wght' 350;
      }

      .cls-8 {
        fill: #e40134;
      }

      .cls-9 {
        fill: #c8006e;
      }

      .cls-10 {
        fill: #aa1435;
      }

      .cls-11 {
        fill: #9d111c;
      }

      .cls-4 {
        fill: #e30613;
        stroke: #1d1d1b;
      }

      .cls-12 {
        fill: #c11011;
      }

      .cls-13 {
        fill: #a41e1b;
      }

      .cls-7 {
        fill: #e52823;
      }

      .cls-14 {
        fill: #8f0f28;
      }

      .cls-15 {
        fill: #bd1111;
      }

      .cls-16 {
        fill: #740e00;
      }

      .cls-17 {
        fill: #be1d2f;
      }

      .cls-18 {
        fill: #cd171d;
      }

      .cls-19 {
        fill: #1d1d1b;
      }
    </style>
  </defs>
  <g id="Capa_3" data-name="Capa 3">
    <text class="cls-7" transform="translate(.56 146.95) scale(.99 1)"><tspan x="0" y="0">KUENTY</tspan></text>
    <text class="cls-5" transform="translate(0 146.52) scale(.99 1)"><tspan x="0" y="0">KUENTY</tspan></text>
    <polygon class="cls-10" points="61.14 36.24 37.48 45.44 7.79 15.55 61.14 36.24"/>
    <polygon class="cls-9" points="62.47 36.83 86.89 46.3 62.47 70.56 38.25 46.18 62.47 36.83"/>
    <polygon class="cls-8" points="89.5 46.3 120.77 15.12 120.93 58.51 89.5 46.3"/>
    <path class="cls-16" d="M61.55,112.56l.1-40.08-25.54-25.83L4.6,58.9s-1.03,48.48,56.95,53.65Z"/>
    <line class="cls-4" x1="62.5" y1="36.3" x2="36.87" y2="46.21"/>
    <polygon class="cls-2" points="62.56 1.07 86.98 10.54 62.56 34.8 38.34 10.42 62.56 1.07"/>
    <polygon class="cls-18" points="118.09 15.31 87.71 45.6 63.67 36.31 118.09 15.31"/>
    <polygon class="cls-17" points="35.52 46.2 4.95 58.07 4.98 15.53 35.52 46.2"/>
    <path class="cls-15" d="M62.77,112.22l.1-39.8,26.09-25.44,32.29,12.41s.99,48.44-58.48,52.83Z"/>
    <g>
      <line class="cls-1" x1="62.41" y1="112.85" x2="62.48" y2="70.65"/>
      <line class="cls-1" x1="3.74" y1="113.83" x2="121.49" y2="113.86"/>
      <path class="cls-1" d="M3.98,58.94c-.09,29.54,26.13,53.53,58.64,53.63"/>
      <line class="cls-1" x1="3.99" y1="13.6" x2="3.98" y2="59.6"/>
      <line class="cls-1" x1="61.77" y1="72.71" x2="120.31" y2="14.54"/>
      <line class="cls-1" x1="5.5" y1="14.65" x2="62.75" y2="72.25"/>
      <line class="cls-3" x1="3.99" y1="13.6" x2="121.8" y2="59.32"/>
      <line class="cls-3" x1="121.81" y1="13.38" x2="3.92" y2="58.95"/>
      <path class="cls-1" d="M121.8,59.32c-.09,29.53-26.5,53.35-59.03,53.25"/>
      <line class="cls-1" x1="121.81" y1="13.38" x2="121.8" y2="59.39"/>
      <ellipse class="cls-6" cx="3.87" cy="13.71" rx=".64" ry=".9" transform="translate(-10.35 14.52) rotate(-77.5)"/>
      <ellipse class="cls-19" cx="5.34" cy="14.88" rx=".55" ry=".81" transform="translate(-9.56 20.18) rotate(-89.82)"/>
      <ellipse class="cls-6" cx="121.92" cy="13.48" rx=".9" ry=".64" transform="translate(-.11 25.93) rotate(-12.14)"/>
      <ellipse class="cls-19" cx="120.59" cy="14.51" rx=".64" ry=".9" transform="translate(80.32 129.1) rotate(-77.5)"/>
    </g>
    <polygon class="cls-14" points="62.37 16.21 39.49 11.06 62.26 33.98 62.37 16.21"/>
    <polygon class="cls-11" points="63.06 33.82 85.68 11.35 63.16 16.32 63.06 33.82"/>
    <polygon class="cls-13" points="39.83 10.27 62.38 15.52 62.14 1.48 39.83 10.27"/>
    <polygon class="cls-12" points="85.69 10.36 62.97 1.48 63.02 15.53 85.69 10.36"/>
    <line class="cls-3" x1="62.56" y1="1.07" x2="62.77" y2="16.05"/>
    <line class="cls-3" x1="62.56" y1="34.8" x2="62.77" y2="16.05"/>
    <line class="cls-1" x1="38.34" y1="10.42" x2="62.77" y2="16.05"/>
    <line class="cls-1" x1="86.98" y1="10.54" x2="62.77" y2="16.05"/>
    <line class="cls-1" x1="62.67" y1="36.05" x2="122.07" y2="13.92"/>
    <line class="cls-1" x1="61.85" y1="36.05" x2="3.98" y2="14.14"/>
  </g>
</svg>